Results
version=1
nRows=4
nColumns=213
inDegrees=yes
endheader
time	platform_rx	platform_ry	platform_rz	platform_ty	pelvis_tilt	pelvis_list	pelvis_rotation	pelvis_tx	pelvis_ty	pelvis_tz	hip_flexion_r	hip_adduction_r	hip_rotation_r	knee_angle_r	knee_angle_r_beta	ankle_angle_r	subtalar_angle_r	mtp_angle_r	hip_flexion_l	hip_adduction_l	hip_rotation_l	knee_angle_l	knee_angle_l_beta	ankle_angle_l	subtalar_angle_l	mtp_angle_l	lumbar_extension	lumbar_bending	lumbar_rotation	arm_flex_r	arm_add_r	arm_rot_r	elbow_flex_r	pro_sup_r	wrist_flex_r	wrist_dev_r	arm_flex_l	arm_add_l	arm_rot_l	elbow_flex_l	pro_sup_l	wrist_flex_l	wrist_dev_l	platform_rx_u	platform_ry_u	platform_rz_u	platform_ty_u	pelvis_tilt_u	pelvis_list_u	pelvis_rotation_u	pelvis_tx_u	pelvis_ty_u	pelvis_tz_u	hip_flexion_r_u	hip_adduction_r_u	hip_rotation_r_u	knee_angle_r_u	knee_angle_r_beta_u	ankle_angle_r_u	subtalar_angle_r_u	mtp_angle_r_u	hip_flexion_l_u	hip_adduction_l_u	hip_rotation_l_u	knee_angle_l_u	knee_angle_l_beta_u	ankle_angle_l_u	subtalar_angle_l_u	mtp_angle_l_u	lumbar_extension_u	lumbar_bending_u	lumbar_rotation_u	arm_flex_r_u	arm_add_r_u	arm_rot_r_u	elbow_flex_r_u	pro_sup_r_u	wrist_flex_r_u	wrist_dev_r_u	arm_flex_l_u	arm_add_l_u	arm_rot_l_u	elbow_flex_l_u	pro_sup_l_u	wrist_flex_l_u	wrist_dev_l_u	addbrev_r.activation	addlong_r.activation	addlong_r.fiber_length	addmagDist_r.activation	addmagIsch_r.activation	addmagIsch_r.fiber_length	addmagMid_r.activation	addmagProx_r.activation	bflh_r.activation	bflh_r.fiber_length	bfsh_r.activation	edl_r.activation	edl_r.fiber_length	ehl_r.activation	ehl_r.fiber_length	fdl_r.activation	fdl_r.fiber_length	fhl_r.activation	fhl_r.fiber_length	gaslat_r.activation	gaslat_r.fiber_length	gasmed_r.activation	gasmed_r.fiber_length	glmax1_r.activation	glmax2_r.activation	glmax3_r.activation	glmed1_r.activation	glmed2_r.activation	glmed3_r.activation	glmin1_r.activation	glmin2_r.activation	glmin3_r.activation	glmin3_r.fiber_length	grac_r.activation	iliacus_r.activation	perbrev_r.activation	perbrev_r.fiber_length	perlong_r.activation	perlong_r.fiber_length	piri_r.activation	piri_r.fiber_length	psoas_r.activation	recfem_r.activation	recfem_r.fiber_length	sart_r.activation	semimem_r.activation	semimem_r.fiber_length	semiten_r.activation	semiten_r.fiber_length	soleus_r.activation	soleus_r.fiber_length	tfl_r.activation	tfl_r.fiber_length	tibant_r.activation	tibant_r.fiber_length	tibpost_r.activation	tibpost_r.fiber_length	vasint_r.activation	vasint_r.fiber_length	vaslat_r.activation	vaslat_r.fiber_length	vasmed_r.activation	vasmed_r.fiber_length	addbrev_l.activation	addlong_l.activation	addlong_l.fiber_length	addmagDist_l.activation	addmagIsch_l.activation	addmagIsch_l.fiber_length	addmagMid_l.activation	addmagProx_l.activation	bflh_l.activation	bflh_l.fiber_length	bfsh_l.activation	edl_l.activation	edl_l.fiber_length	ehl_l.activation	ehl_l.fiber_length	fdl_l.activation	fdl_l.fiber_length	fhl_l.activation	fhl_l.fiber_length	gaslat_l.activation	gaslat_l.fiber_length	gasmed_l.activation	gasmed_l.fiber_length	glmax1_l.activation	glmax2_l.activation	glmax3_l.activation	glmed1_l.activation	glmed2_l.activation	glmed3_l.activation	glmin1_l.activation	glmin2_l.activation	glmin3_l.activation	glmin3_l.fiber_length	grac_l.activation	iliacus_l.activation	perbrev_l.activation	perbrev_l.fiber_length	perlong_l.activation	perlong_l.fiber_length	piri_l.activation	piri_l.fiber_length	psoas_l.activation	recfem_l.activation	recfem_l.fiber_length	sart_l.activation	semimem_l.activation	semimem_l.fiber_length	semiten_l.activation	semiten_l.fiber_length	soleus_l.activation	soleus_l.fiber_length	tfl_l.activation	tfl_l.fiber_length	tibant_l.activation	tibant_l.fiber_length	tibpost_l.activation	tibpost_l.fiber_length	vasint_l.activation	vasint_l.fiber_length	vaslat_l.activation	vaslat_l.fiber_length	vasmed_l.activation	vasmed_l.fiber_length
      0.00000000	     20.00000000	      0.00000000	      0.00000000	      0.25000000	     -6.04699904	      0.00000000	     -0.00000000	      0.09700000	      0.89199994	      0.00000000	     28.10300320	    -10.15799999	     -9.99999992	     38.07696830	     38.07696830	     14.79499096	     -0.00000019	      0.00000000	     28.10300211	    -10.15800000	     -9.99995189	     38.07696716	     38.07696716	     14.79499100	      0.00000000	      0.00000000	      0.00000000	      0.00000000	      0.00000000	     35.99999230	     -0.00001160	     89.91003784	      0.09586261	      0.09584770	      0.00000000	      0.00000000	     35.99999227	     -0.00000940	     89.91038862	      0.09586261	      0.09584770	      0.00000000	      0.00000000	      0.00000000	      0.00000000	      0.00000000	      0.00000000	      0.00000000	      0.00000000	      0.00000000	      0.00000000	      0.00000000	      0.00000000	      0.00000000	      0.00000000	      0.00000000	      0.00000000	      0.00000000	      0.00000000	      0.00000000	      0.00000000	      0.00000000	      0.00000000	      0.00000000	      0.00000000	      0.00000000	      0.00000000	      0.00000000	      0.00000000	      0.00000000	      0.00000000	      0.00000000	      0.00000000	      0.00000000	      0.00000000	      0.00000000	      0.00000000	      0.00000000	      0.00000000	      0.00000000	      0.00000000	      0.00000000	      0.00000000	      0.00000000	      0.00000000	      0.00000000	      0.01000000	      0.01000000	      0.10345710	      0.01000000	      0.01000000	      0.15680671	      0.01000000	      0.01000000	      0.01000000	      0.09849413	      0.01000000	      0.01000000	      0.06004148	      0.01000000	      0.06833977	      0.01000000	      0.04681294	      0.01000000	      0.05432912	      0.01000000	      0.06866876	      0.01000000	      0.05995756	      0.01000000	      0.01000000	      0.01000000	      0.01000000	      0.01000000	      0.01000000	      0.01000000	      0.01000000	      0.01000000	      0.03739602	      0.01000000	      0.01000000	      0.01000000	      0.04983165	      0.01000000	      0.05597173	      0.01000000	      0.02136849	      0.01000000	      0.01000000	      0.07194871	      0.01000000	      0.01000000	      0.06721910	      0.01000000	      0.21370567	      0.01000000	      0.05586305	      0.01000000	      0.08149031	      0.01000000	      0.05526584	      0.01000000	      0.04091336	      0.01000000	      0.10799175	      0.01000000	      0.10625559	      0.01000000	      0.10539786	      0.01000000	      0.01000000	      0.10345710	      0.01000000	      0.01000000	      0.15680671	      0.01000000	      0.01000000	      0.01000000	      0.09849413	      0.01000000	      0.01000000	      0.06004148	      0.01000000	      0.06833977	      0.01000000	      0.04681294	      0.01000000	      0.05432912	      0.01000000	      0.06866876	      0.01000000	      0.05995757	      0.01000000	      0.01000000	      0.01000000	      0.01000000	      0.01000000	      0.01000000	      0.01000000	      0.01000000	      0.01000000	      0.03739601	      0.01000000	      0.01000000	      0.01000000	      0.04983165	      0.01000000	      0.05597173	      0.01000000	      0.02136850	      0.01000000	      0.01000000	      0.07194872	      0.01000000	      0.01000000	      0.06721910	      0.01000000	      0.21370567	      0.01000000	      0.05586305	      0.01000000	      0.08149029	      0.01000000	      0.05526584	      0.01000000	      0.04091336	      0.01000000	      0.10799175	      0.01000000	      0.10625559	      0.01000000	      0.10539786
      0.00100000	     20.00000000	      0.00000000	     -0.00000000	      0.25000000	     -6.04359197	     -0.00016871	     -0.00013612	      0.09699954	      0.89200317	      0.00000058	     28.09884955	    -10.15767109	    -10.00078968	     38.07394470	     38.07394470	     14.73138214	     -0.01762242	     -0.00000000	     28.09872713	    -10.15869781	    -10.00112547	     38.07399083	     38.07399083	     14.73534865	      0.00000000	     -0.00000000	     -0.00415740	      0.00015721	      0.00013528	     36.00072604	     -0.00005129	     89.91001436	      0.09601008	      0.09577857	      0.00000000	     -0.00000000	     36.00073247	     -0.00008140	     89.91037703	      0.09602488	      0.09578095	      0.00000000	      0.00000000	     -0.00000000	      0.00000000	     -0.00000000	      0.00000000	      6.80758111	     -0.33444299	     -0.26975410	     -0.00089979	      0.00643596	      0.00115363	     -8.30682489	      0.65254622	     -1.57871497	     -6.04974105	     -6.04974105	   -126.73672867	    -35.05273878	     -0.00000000	     -8.54760413	     -1.38591172	     -2.34041208	     -5.95592335	     -5.95592335	   -118.86434724	     -0.00000000	     -0.00000000	     -8.30507870	      0.31135572	      0.26810255	      1.46477761	     -0.07902843	     -0.04700158	      0.29417517	     -0.13757208	      0.00000000	     -0.00000000	      1.47771896	     -0.14382949	     -0.02314653	      0.32384935	     -0.13279167	      0.00000000	      0.00000000	      0.01000000	      0.01000000	      0.10345782	      0.01000000	      0.01000000	      0.15680554	      0.01000000	      0.01000000	      0.01000000	      0.09849378	      0.01000000	      0.01000000	      0.06004486	      0.01000000	      0.06834458	      0.01000000	      0.04681285	      0.01000000	      0.05432853	      0.01000000	      0.06866452	      0.01000000	      0.05995395	      0.01000000	      0.01000000	      0.01000000	      0.01000000	      0.01000000	      0.01000000	      0.01000000	      0.01000000	      0.01000000	      0.03739576	      0.01000000	      0.01000000	      0.01000000	      0.04982938	      0.01000000	      0.05597028	      0.01000000	      0.02136837	      0.01000000	      0.01000000	      0.07194880	      0.01000000	      0.01000000	      0.06721896	      0.01000000	      0.21370498	      0.01000000	      0.05585764	      0.01000000	      0.08149060	      0.01000000	      0.05527348	      0.01000000	      0.04091315	      0.01000000	      0.10799126	      0.01000000	      0.10625513	      0.01000000	      0.10539737	      0.01000000	      0.01000000	      0.10345821	      0.01000000	      0.01000000	      0.15680570	      0.01000000	      0.01000000	      0.01000000	      0.09849381	      0.01000000	      0.01000000	      0.06004504	      0.01000000	      0.06834432	      0.01000000	      0.04681260	      0.01000000	      0.05432830	      0.01000000	      0.06866463	      0.01000000	      0.05995411	      0.01000000	      0.01000000	      0.01000000	      0.01000000	      0.01000000	      0.01000000	      0.01000000	      0.01000000	      0.01000000	      0.03739557	      0.01000000	      0.01000000	      0.01000000	      0.04983083	      0.01000000	      0.05597102	      0.01000000	      0.02136831	      0.01000000	      0.01000000	      0.07194879	      0.01000000	      0.01000000	      0.06721897	      0.01000000	      0.21370510	      0.01000000	      0.05585780	      0.01000000	      0.08149051	      0.01000000	      0.05527250	      0.01000000	      0.04091284	      0.01000000	      0.10799127	      0.01000000	      0.10625514	      0.01000000	      0.10539738
      0.00180435	     20.00000000	      0.00000000	     -0.00000000	      0.25000000	     -6.03591742	     -0.00053972	     -0.00043499	      0.09699856	      0.89201039	      0.00000186	     28.08946466	    -10.15694617	    -10.00257086	     38.06710728	     38.06710728	     14.58957033	     -0.05670833	     -0.00000000	     28.08907507	    -10.16023932	    -10.00375246	     38.06725799	     38.06725799	     14.60227750	     -0.00000000	     -0.00000000	     -0.01351514	      0.00050209	      0.00043235	     36.00237387	     -0.00013984	     89.90996120	      0.09634042	      0.09562537	      0.00000000	     -0.00000000	     36.00239492	     -0.00024316	     89.91035083	      0.09638874	      0.09563315	     -0.00000000	     -0.00000000	     -0.00000000	      0.00000000	      0.00000000	      0.00000000	     12.27679793	     -0.58462736	     -0.47033923	     -0.00150655	      0.01149054	      0.00202678	    -15.04418651	      1.14399227	     -2.85135464	    -10.96433085	    -10.96433085	   -225.18074350	    -61.86497631	     -0.00000000	    -15.46514757	     -2.43417403	     -4.18500873	    -10.79865830	    -10.79865830	   -211.39824327	     -0.00000000	     -0.00000000	    -14.96147803	      0.54272409	      0.46754202	      2.63055307	     -0.14088967	     -0.08527721	      0.52644118	     -0.24205687	      0.00000000	     -0.00000000	      2.65395632	     -0.25807061	     -0.04213712	      0.58010128	     -0.23341160	     -0.00000000	     -0.00000000	      0.01000000	      0.01000000	      0.10346059	      0.01000000	      0.01000000	      0.15680091	      0.01000000	      0.01000000	      0.01000000	      0.09849225	      0.01000000	      0.01000000	      0.06006318	      0.01000000	      0.06837307	      0.01000000	      0.04681247	      0.01000000	      0.05432584	      0.01000000	      0.06864479	      0.01000000	      0.05993693	      0.01000000	      0.01000000	      0.01000000	      0.01000000	      0.01000000	      0.01000000	      0.01000000	      0.01000000	      0.01000000	      0.03739477	      0.01000000	      0.01000000	      0.01000000	      0.04981958	      0.01000000	      0.05596372	      0.01000000	      0.02136782	      0.01000000	      0.01000000	      0.07194921	      0.01000000	      0.01000000	      0.06721829	      0.01000000	      0.21370249	      0.01000000	      0.05583236	      0.01000000	      0.08149195	      0.01000000	      0.05532422	      0.01000000	      0.04091218	      0.01000000	      0.10798926	      0.01000000	      0.10625325	      0.01000000	      0.10539544	      0.01000000	      0.01000000	      0.10346249	      0.01000000	      0.01000000	      0.15680176	      0.01000000	      0.01000000	      0.01000000	      0.09849239	      0.01000000	      0.01000000	      0.06006472	      0.01000000	      0.06837064	      0.01000000	      0.04681106	      0.01000000	      0.05432456	      0.01000000	      0.06864541	      0.01000000	      0.05993791	      0.01000000	      0.01000000	      0.01000000	      0.01000000	      0.01000000	      0.01000000	      0.01000000	      0.01000000	      0.01000000	      0.03739383	      0.01000000	      0.01000000	      0.01000000	      0.04982734	      0.01000000	      0.05596779	      0.01000000	      0.02136744	      0.01000000	      0.01000000	      0.07194912	      0.01000000	      0.01000000	      0.06721838	      0.01000000	      0.21370305	      0.01000000	      0.05583342	      0.01000000	      0.08149148	      0.01000000	      0.05531528	      0.01000000	      0.04091049	      0.01000000	      0.10798930	      0.01000000	      0.10625329	      0.01000000	      0.10539548
      0.00260871	     20.00000000	      0.00000000	      0.00000000	      0.25000000	     -6.02383721	     -0.00110331	     -0.00088751	      0.09699716	      0.89202163	      0.00000382	     28.07461668	    -10.15584053	    -10.00537948	     38.05627804	     38.05627804	     14.37035818	     -0.11667931	     -0.00000000	     28.07382158	    -10.16259107	    -10.00784732	     38.05658988	     38.05658988	     14.39636289	     -0.00000000	     -0.00000000	     -0.02822582	      0.00102438	      0.00088226	     36.00495458	     -0.00027750	     89.90987699	      0.09685564	      0.09539147	      0.00000000	     -0.00000000	     36.00499862	     -0.00049600	     89.91030902	      0.09695670	      0.09540776	     -0.00000000	     -0.00000000	     -0.00000000	      0.00000000	      0.00000000	      0.00000000	     17.76357333	     -0.81307938	     -0.65158316	     -0.00194724	      0.01643262	      0.00283353	    -21.89545047	      1.59938901	     -4.13424826	    -15.98351018	    -15.98351018	   -319.10412171	    -86.96176133	      0.00000000	    -22.47997122	     -3.39898664	     -5.99040843	    -15.74901984	    -15.74901984	   -299.90387446	     -0.00000000	     -0.00000000	    -21.61613628	      0.75228273	      0.64795816	      3.78414370	     -0.20113560	     -0.12421569	      0.75378716	     -0.33807676	     -0.00000000	      0.00000000	      3.81791542	     -0.37021867	     -0.06196202	      0.83121407	     -0.32560068	     -0.00000000	     -0.00000000	      0.01000000	      0.01000000	      0.10346609	      0.01000000	      0.01000000	      0.15679166	      0.01000000	      0.01000000	      0.01000000	      0.09848888	      0.01000000	      0.01000000	      0.06012344	      0.01000000	      0.06846343	      0.01000000	      0.04681157	      0.01000000	      0.05431975	      0.01000000	      0.06859426	      0.01000000	      0.05989245	      0.01000000	      0.01000000	      0.01000000	      0.01000000	      0.01000000	      0.01000000	      0.01000000	      0.01000000	      0.01000000	      0.03739278	      0.01000000	      0.01000000	      0.01000000	      0.04979762	      0.01000000	      0.05594870	      0.01000000	      0.02136659	      0.01000000	      0.01000000	      0.07195014	      0.01000000	      0.01000000	      0.06721679	      0.01000000	      0.21369777	      0.01000000	      0.05577148	      0.01000000	      0.08149499	      0.01000000	      0.05545481	      0.01000000	      0.04090996	      0.01000000	      0.10798517	      0.01000000	      0.10624937	      0.01000000	      0.10539155	      0.01000000	      0.01000000	      0.10347094	      0.01000000	      0.01000000	      0.15679383	      0.01000000	      0.01000000	      0.01000000	      0.09848927	      0.01000000	      0.01000000	      0.06012989	      0.01000000	      0.06845456	      0.01000000	      0.04680754	      0.01000000	      0.05431607	      0.01000000	      0.06859640	      0.01000000	      0.05989593	      0.01000000	      0.01000000	      0.01000000	      0.01000000	      0.01000000	      0.01000000	      0.01000000	      0.01000000	      0.01000000	      0.03739040	      0.01000000	      0.01000000	      0.01000000	      0.04981991	      0.01000000	      0.05596054	      0.01000000	      0.02136550	      0.01000000	      0.01000000	      0.07194988	      0.01000000	      0.01000000	      0.06721703	      0.01000000	      0.21369913	      0.01000000	      0.05577467	      0.01000000	      0.08149371	      0.01000000	      0.05542956	      0.01000000	      0.04090513	      0.01000000	      0.10798527	      0.01000000	      0.10624946	      0.01000000	      0.10539165
